<svg width="32" height="31" viewBox="0 0 32 31" fill="none" xmlns="http://www.w3.org/2000/svg">
<path d="M26.0617 14.3609H28.6014C28.6014 7.84661 23.6833 2.93359 17.1602 2.93359V5.47328C22.3183 5.47328 26.0617 9.21042 26.0617 14.3609Z" fill="white"/>
<path d="M17.1714 10.5524C19.8419 10.5524 20.9809 11.6914 20.9809 14.3619H23.5206C23.5206 10.2667 21.2667 8.01269 17.1714 8.01269V10.5524ZM21.5168 17.4641C21.2728 17.2423 20.9522 17.1241 20.6226 17.1343C20.293 17.1444 19.9803 17.2823 19.7505 17.5187L16.7117 20.6438C15.9803 20.5041 14.5098 20.0457 12.9962 18.5359C11.4825 17.0209 11.0241 15.5467 10.8883 14.8203L14.0108 11.7803C14.2475 11.5506 14.3856 11.2379 14.3958 10.9082C14.4059 10.5785 14.2875 10.2578 14.0654 10.014L9.37333 4.85459C9.15116 4.60997 8.84238 4.46158 8.51257 4.44096C8.18276 4.42033 7.8579 4.52908 7.60698 4.74412L4.85143 7.10729C4.63189 7.32763 4.50085 7.62088 4.48317 7.93142C4.46413 8.24888 4.10095 15.7689 9.93206 21.6025C15.019 26.6882 21.3911 27.0603 23.146 27.0603C23.4025 27.0603 23.56 27.0527 23.6019 27.0501C23.9124 27.0328 24.2055 26.9011 24.4248 26.6806L26.7867 23.9238C27.0019 23.673 27.1108 23.3483 27.0904 23.0185C27.07 22.6887 26.9219 22.3798 26.6775 22.1574L21.5168 17.4641Z" fill="white"/>
</svg>
