<svg width="29" height="31" viewBox="0 0 29 31" fill="none" xmlns="http://www.w3.org/2000/svg">
<path d="M14.4 0C10.5809 0 6.91819 1.61196 4.21766 4.48127C1.51714 7.35057 0 11.2422 0 15.3C0 19.3578 1.51714 23.2494 4.21766 26.1187C6.91819 28.988 10.5809 30.6 14.4 30.6C18.2191 30.6 21.8818 28.988 24.5823 26.1187C27.2829 23.2494 28.8 19.3578 28.8 15.3C28.8 11.2422 27.2829 7.35057 24.5823 4.48127C21.8818 1.61196 18.2191 0 14.4 0V0ZM1.776 16.456H5.792C5.856 18.003 6.0592 19.5398 6.4 21.046H2.944C2.29953 19.6025 1.90393 18.0479 1.776 16.456V16.456ZM15.488 7.276V2.023C17.0299 2.64558 18.2969 3.85836 19.04 5.423C19.368 6.0129 19.6576 6.6266 19.904 7.259L15.488 7.276V7.276ZM20.64 9.571C21.0112 11.0721 21.232 12.6106 21.296 14.161H15.488V9.571H20.64V9.571ZM13.312 2.023V7.276H8.896C9.14282 6.64308 9.43154 6.02955 9.76 5.44C10.4999 3.86895 11.7673 2.64972 13.312 2.023V2.023ZM13.312 9.571V14.161H7.52C7.584 12.6106 7.8048 11.0721 8.176 9.571H13.312V9.571ZM5.792 14.144H1.776C1.90393 12.5521 2.29953 10.9975 2.944 9.554H6.4C6.05855 11.0596 5.85493 12.5968 5.792 14.144V14.144ZM7.52 16.456H13.312V21.046H8.176C7.80486 19.545 7.58496 18.0064 7.52 16.456V16.456ZM13.328 23.256V28.509C11.7861 27.8864 10.5191 26.6736 9.776 25.109C9.44754 24.5195 9.15882 23.9059 8.912 23.273L13.328 23.256V23.256ZM15.488 28.509V23.341H19.904C19.6572 23.9739 19.3685 24.5875 19.04 25.177C18.2969 26.7416 17.0299 27.9544 15.488 28.577V28.509V28.509ZM15.488 20.961V16.371H21.28C21.215 17.9214 20.9951 19.46 20.624 20.961H15.488ZM23.024 16.371H27.04C26.9121 17.9629 26.5165 19.5175 25.872 20.961H22.4C22.736 19.482 22.9392 17.9741 23.008 16.456L23.024 16.371V16.371ZM23.024 14.076C22.9507 12.5567 22.7418 11.0483 22.4 9.571H25.856C26.5008 11.016 26.896 12.5698 27.024 14.161L23.024 14.076ZM24.624 7.276H21.76C21.2418 5.72951 20.4907 4.28268 19.536 2.992C21.527 3.94158 23.2564 5.41629 24.56 7.276H24.624V7.276ZM9.264 2.992C8.30931 4.28268 7.5582 5.72951 7.04 7.276H4.24C5.54355 5.41629 7.27299 3.94158 9.264 2.992V2.992ZM4.224 23.392H7.04C7.5582 24.9385 8.30931 26.3853 9.264 27.676C7.26748 26.7121 5.53751 25.2194 4.24 23.341L4.224 23.392V23.392ZM19.52 27.676C20.4747 26.3853 21.2258 24.9385 21.744 23.392H24.56C23.2485 25.2268 21.5197 26.6775 19.536 27.608L19.52 27.676Z" fill="white"/>
</svg>
