<svg width="44" height="64" viewBox="0 0 44 64" fill="none" xmlns="http://www.w3.org/2000/svg">
<rect x="2.10449" y="2.98438" width="39.7399" height="58.8115" rx="3" stroke="#41C5D3" stroke-width="4"/>
<line x1="0.56543" y1="12.7637" x2="43.3423" y2="12.7637" stroke="#41C5D3" stroke-width="4"/>
<line x1="0.977539" y1="52.8027" x2="43.7544" y2="52.8027" stroke="#41C5D3" stroke-width="4"/>
<path d="M27.8513 32.0775V32.087V32.1045V32.1219V32.1394V32.1568V32.1742V32.1917V32.2091V32.2266V32.244V32.2615V32.2789V32.2964V32.3138V32.3312V32.3487V32.3661V32.3836V32.401V32.4185V32.4359V32.4534V32.4708V32.4883V32.5057V32.5231V32.5406V32.558V32.5755V32.5929V32.6104V32.6278V32.6453V32.6627V32.6802V32.6976V32.715V32.7325V32.7499V32.7674V32.7848V32.8023V32.8197V32.8372V32.8546V32.872V32.8895V32.9069V32.9244V32.9418V32.9593V32.9767V32.9942V33.0116V33.0291V33.0465V33.0639V33.0814V33.0988V33.1163V33.1337V33.1512V33.1686V33.1861V33.2035V33.2209V33.2384V33.2558V33.2733V33.2907V33.3082V33.3256V33.3431V33.3605V33.378V33.3954V33.4128V33.4303V33.4477V33.4652V33.4826V33.5001V33.5175V33.535V33.5524V33.5698V33.5873V33.6047V33.6222V33.6396V33.6571V33.6745V33.692V33.7094V33.7269V33.7443V33.7617V33.7792V33.7966V33.8141V33.8315V33.849V33.8664V33.8839V33.9013V33.9188V33.9362V33.9536V33.9711V33.9885V34.006V34.0234V34.0409V34.0583V34.0758V34.0932V34.1106V34.1281V34.1455V34.163V34.1804V34.1979V34.2153V34.2328V34.2502V34.2677V34.2851V34.3025V34.32V34.3374V34.3549V34.3723V34.3898V34.4072V34.4247V34.4421V34.4595V34.477V34.4944V34.5119V34.5293V34.5468V34.5642V34.5817V34.5991V34.6166V34.634V34.6514V34.6689V34.6863V34.7038V34.7212V34.7387V34.7561V34.7736V34.791V34.8084V34.8259V34.8433V34.8608V34.8782V34.8957V34.9131V34.9306V34.948V34.9655V34.9829V35.0003V35.0178V35.0352V35.0527V35.0701V35.0876V35.105V35.1225V35.1399V35.1573V35.1748V35.1922V35.2097V35.2271V35.2446V35.262V35.2795V35.2969V35.3144V35.3318V35.3492V35.3667V35.3841V35.4016V35.419V35.4365V35.4539V35.4714V35.4888V35.5063V35.5237V35.5411V35.5586V35.576V35.5935V35.6109V35.6284V35.6458V35.6633V35.6807V35.6981V35.7156V35.733V35.7505V35.7679V35.7854V35.8028V35.8203V35.8377V35.8552V35.8726V35.89V35.9075V35.9249V35.9424V35.9598V35.9773V35.9947V36.0122V36.0296V36.047V36.0645V36.0819V36.0994V36.1168V36.1343V36.1517V36.1692V36.1866V36.2041V36.2215V36.2389V36.2564V36.2738V36.2913V36.3087V36.3262V36.3436V36.3611V36.3785V36.3959V36.4134V36.4308V36.4483V36.4657V36.4832V36.5006V36.5181V36.5355V36.553V36.5704V36.5878V36.6053V36.6227V36.6402V36.6576V36.6751V36.6925V36.71V36.7274V36.7449V36.7623V36.7797V36.7972V36.8146V36.8321V36.8495V36.867V36.8844V36.9019V36.9193V36.9367V36.9542V36.9716V36.9891V37.0065V37.024V37.0414V37.0589V37.0763V37.0938V37.1112V37.1286V37.1461V37.1635V37.181V37.1984V37.2159V37.2333V37.2508V37.2682V37.2856V37.3031V37.3205V37.338V37.3554V37.3729V37.3903V37.4078V37.4252V37.4427V37.4601V37.4775V37.495V37.5124V37.5299V37.5473V37.5648V37.5822V37.5997V37.6171V37.6345V37.652V37.6694V37.6869V37.7043V37.7218V37.7392V37.7567V37.7741V37.7916V37.809V37.8264V37.8439V37.8613V37.8788V37.8962V37.9137V37.9311V37.9486V37.966V37.9834V38.0009V38.0183V38.0358V38.0532V38.0707V38.0881V38.1056V38.123V38.1405V38.1579V38.1753V38.1928V38.2102V38.2277V38.2451V38.2626V38.28V38.2975V38.3149V38.3324V38.3498V38.3672V38.3847V38.4021V38.4196V38.437V38.4545V38.4719V38.4894V38.5068V38.5242V38.5417V38.5591V38.5766V38.594V38.6115V38.6267C26.7069 38.8686 25.3915 39.3564 24.3095 39.8075C23.5939 40.1059 22.9415 40.4051 22.4472 40.6442C22.2002 40.7636 21.9894 40.8697 21.8278 40.9545C21.7941 40.9721 21.7581 40.9911 21.7215 41.0109C21.2418 40.7053 20.6356 40.4288 20.0296 40.1874C19.2793 39.8884 18.4463 39.6112 17.6776 39.376C16.9067 39.1402 16.1883 38.9428 15.6632 38.8046C15.6295 38.7957 15.5966 38.7871 15.5645 38.7787V38.7766V38.7589V38.7411V38.7234V38.7056V38.6879V38.6701V38.6524V38.6346V38.6169V38.5991V38.5814V38.5636V38.5459V38.5281V38.5104V38.4926V38.4749V38.4571V38.4394V38.4217V38.4039V38.3862V38.3684V38.3507V38.3329V38.3152V38.2974V38.2797V38.2619V38.2442V38.2264V38.2087V38.1909V38.1732V38.1554V38.1377V38.1199V38.1022V38.0844V38.0667V38.0489V38.0312V38.0135V37.9957V37.978V37.9602V37.9425V37.9247V37.907V37.8892V37.8715V37.8537V37.836V37.8182V37.8005V37.7827V37.765V37.7472V37.7295V37.7117V37.694V37.6762V37.6585V37.6408V37.623V37.6053V37.5875V37.5698V37.552V37.5343V37.5165V37.4988V37.481V37.4633V37.4455V37.4278V37.41V37.3923V37.3745V37.3568V37.339V37.3213V37.3035V37.2858V37.2681V37.2503V37.2326V37.2148V37.1971V37.1793V37.1616V37.1438V37.1261V37.1083V37.0906V37.0728V37.0551V37.0373V37.0196V37.0018V36.9841V36.9663V36.9486V36.9308V36.9131V36.8954V36.8776V36.8599V36.8421V36.8244V36.8066V36.7889V36.7711V36.7534V36.7356V36.7179V36.7001V36.6824V36.6646V36.6469V36.6291V36.6114V36.5936V36.5759V36.5581V36.5404V36.5227V36.5049V36.4872V36.4694V36.4517V36.4339V36.4162V36.3984V36.3807V36.3629V36.3452V36.3274V36.3097V36.2919V36.2742V36.2564V36.2387V36.2209V36.2032V36.1854V36.1677V36.15V36.1322V36.1145V36.0967V36.079V36.0612V36.0435V36.0257V36.008V35.9902V35.9725V35.9547V35.937V35.9192V35.9015V35.8837V35.866V35.8482V35.8305V35.8127V35.795V35.7773V35.7595V35.7418V35.724V35.7063V35.6885V35.6708V35.653V35.6353V35.6175V35.5998V35.582V35.5643V35.5465V35.5288V35.511V35.4933V35.4755V35.4578V35.44V35.4223V35.4046V35.3868V35.3691V35.3513V35.3336V35.3158V35.2981V35.2803V35.2626V35.2448V35.2271V35.2093V35.1916V35.1738V35.1561V35.1383V35.1206V35.1028V35.0851V35.0673V35.0496V35.0318V35.0141V34.9964V34.9786V34.9609V34.9431V34.9254V34.9076V34.8899V34.8721V34.8544V34.8366V34.8189V34.8011V34.7834V34.7656V34.7479V34.7301V34.7124V34.6946V34.6769V34.6591V34.6414V34.6237V34.6059V34.5882V34.5704V34.5527V34.5349V34.5172V34.4994V34.4817V34.4639V34.4462V34.4284V34.4107V34.3929V34.3752V34.3574V34.3397V34.3219V34.3042V34.2864V34.2687V34.251V34.2332V34.2155V34.1977V34.18V34.1622V34.1445V34.1267V34.109V34.0912V34.0735V34.0557V34.038V34.0202V34.0025V33.9847V33.967V33.9492V33.9315V33.9137V33.896V33.8783V33.8605V33.8428V33.825V33.8073V33.7895V33.7718V33.754V33.7363V33.7185V33.7008V33.683V33.6653V33.6475V33.6298V33.612V33.5943V33.5765V33.5588V33.541V33.5233V33.5056V33.4878V33.4701V33.4523V33.4346V33.4168V33.3991V33.3813V33.3636V33.3458V33.3281V33.3103V33.2926V33.2748V33.2571V33.2393V33.2216V33.2038V33.1861V33.1683V33.1506V33.1329V33.1151V33.0974V33.0796V33.0619V33.0441V33.0264V33.0086V32.9909V32.9731V32.9554V32.9376V32.9199V32.9021V32.8844V32.8666V32.8489V32.8311V32.8134V32.7956V32.7779V32.7601V32.7424V32.7247V32.7069V32.6892V32.6714V32.6537V32.6359V32.6182V32.6004V32.5827V32.5649V32.5472V32.5294V32.5117V32.4939V32.4762V32.4584V32.4407V32.4229V32.4052V32.3874V32.3697V32.352V32.3342V32.3165V32.2987V32.281V32.2632V32.2455V32.2277V32.21V32.1922V32.1745V32.1567V32.139V32.1212V32.1035V32.0857V32.068V32.0502V32.0325V32.0147V31.997V31.9954C16.2105 32.276 16.8565 32.5565 17.5024 32.8371L17.503 32.8373C18.5877 33.3084 19.6722 33.7794 20.7567 34.2505C21.0248 34.4211 21.3856 34.5692 21.7751 34.5692C22.2241 34.5692 22.59 34.3973 22.826 34.2647C23.7144 33.8781 24.6026 33.4915 25.4908 33.1049C26.2776 32.7624 27.0644 32.42 27.8513 32.0775Z" stroke="#18C0CD" stroke-width="2"/>
<path d="M32.5606 33.6299L33.0033 32.604L33.5051 33.6439L33.5233 37.6565H32.4699L32.5606 33.6299ZM32.4755 27.662L32.4763 27.8025C32.2527 27.7562 32.0081 27.7729 31.7695 27.8768C30.1438 28.5845 28.5181 29.292 26.8923 29.9995L26.8735 30.0076L26.8466 30.0193C25.2235 30.7257 23.6004 31.432 21.9775 32.1384L21.9241 32.1617L21.8737 32.191C21.8454 32.2075 21.822 32.2201 21.8029 32.2299L21.735 32.181L21.6363 32.1381L11.0918 27.5581L21.7053 22.9163L32.4755 27.662Z" stroke="#18C0CD" stroke-width="2"/>
</svg>
