<svg width="32" height="24" viewBox="0 0 32 24" fill="none" xmlns="http://www.w3.org/2000/svg">
<path d="M30.6475 3.64351C30.4692 2.94086 30.1231 2.30502 29.6458 1.80357C29.1551 1.28669 28.5541 0.917356 27.8996 0.730421C25.4498 0.0165507 15.6394 0.0321412 15.6394 0.0321412C11.5495 -0.0131068 7.4611 0.220989 3.39718 0.733109C2.7432 0.936011 2.14451 1.31553 1.65435 1.8379C1.17274 2.35487 0.824313 2.99199 0.642879 3.68974C0.208554 6.31751 -0.000260814 8.98531 0.019251 11.6572C0.00784689 14.3267 0.224615 16.993 0.6682 19.6226C0.847934 20.3169 1.19707 20.95 1.68162 21.4611C2.16617 21.9722 2.76915 22.341 3.43183 22.5357C5.91423 23.248 15.6763 23.2325 15.6763 23.2325C19.7714 23.2778 23.8651 23.0437 27.9342 22.5315C28.5882 22.3425 29.188 21.9713 29.6771 21.4528C30.1587 20.9402 30.5006 20.3031 30.6716 19.6097C31.1174 16.9829 31.3319 14.314 31.3122 11.6408C31.3418 8.95618 31.119 6.27538 30.6475 3.64206L30.6475 3.64351ZM12.5469 16.6022L12.5311 6.67386L20.7012 11.6258L12.5469 16.6022Z" fill="white"/>
</svg>
