<svg width="718" height="183" viewBox="0 0 718 183" fill="none" xmlns="http://www.w3.org/2000/svg">
<path d="M11.6035 37.7188V52.5117H4.68555V12.6992H19.916C24.3639 12.6992 27.8913 13.8568 30.498 16.1719C33.123 18.487 34.4355 21.5495 34.4355 25.3594C34.4355 29.2604 33.1504 32.2956 30.5801 34.4648C28.028 36.6341 24.446 37.7188 19.834 37.7188H11.6035ZM11.6035 32.168H19.916C22.377 32.168 24.2546 31.5938 25.5488 30.4453C26.8431 29.2786 27.4902 27.6016 27.4902 25.4141C27.4902 23.263 26.834 21.5495 25.5215 20.2734C24.209 18.9792 22.4043 18.3138 20.1074 18.2773H11.6035V32.168ZM38.2363 37.4453C38.2363 34.5469 38.8105 31.9401 39.959 29.625C41.1074 27.2917 42.7207 25.5052 44.7988 24.2656C46.877 23.0078 49.265 22.3789 51.9629 22.3789C55.9551 22.3789 59.1908 23.6641 61.6699 26.2344C64.1673 28.8047 65.5163 32.2135 65.7168 36.4609L65.7441 38.0195C65.7441 40.9362 65.179 43.543 64.0488 45.8398C62.9368 48.1367 61.3327 49.9141 59.2363 51.1719C57.1582 52.4297 54.752 53.0586 52.0176 53.0586C47.8431 53.0586 44.498 51.6732 41.9824 48.9023C39.485 46.1133 38.2363 42.4036 38.2363 37.7734V37.4453ZM44.8809 38.0195C44.8809 41.0638 45.5098 43.4518 46.7676 45.1836C48.0254 46.8971 49.7754 47.7539 52.0176 47.7539C54.2598 47.7539 56.0007 46.8789 57.2402 45.1289C58.498 43.3789 59.127 40.8177 59.127 37.4453C59.127 34.4557 58.4798 32.0859 57.1855 30.3359C55.9095 28.5859 54.1686 27.7109 51.9629 27.7109C49.7936 27.7109 48.071 28.5768 46.7949 30.3086C45.5189 32.0221 44.8809 34.5924 44.8809 38.0195ZM86.8535 28.9961C85.9785 28.8503 85.0762 28.7773 84.1465 28.7773C81.1022 28.7773 79.0514 29.944 77.9941 32.2773V52.5117H71.3496V22.9258H77.6934L77.8574 26.2344C79.4616 23.6641 81.6855 22.3789 84.5293 22.3789C85.4772 22.3789 86.2611 22.5065 86.8809 22.7617L86.8535 28.9961ZM100.744 15.7344V22.9258H105.967V27.8477H100.744V44.3633C100.744 45.4935 100.963 46.3138 101.4 46.8242C101.856 47.3164 102.658 47.5625 103.807 47.5625C104.572 47.5625 105.347 47.4714 106.131 47.2891V52.4297C104.618 52.849 103.16 53.0586 101.756 53.0586C96.6517 53.0586 94.0996 50.2422 94.0996 44.6094V27.8477H89.2324V22.9258H94.0996V15.7344H100.744ZM128.744 52.5117C128.452 51.9466 128.197 51.026 127.979 49.75C125.864 51.9557 123.275 53.0586 120.213 53.0586C117.242 53.0586 114.817 52.2109 112.939 50.5156C111.062 48.8203 110.123 46.724 110.123 44.2266C110.123 41.0729 111.29 38.6576 113.623 36.9805C115.975 35.2852 119.329 34.4375 123.686 34.4375H127.76V32.4961C127.76 30.9648 127.331 29.7435 126.475 28.832C125.618 27.9023 124.314 27.4375 122.564 27.4375C121.051 27.4375 119.812 27.8203 118.846 28.5859C117.88 29.3333 117.396 30.2904 117.396 31.457H110.752C110.752 29.8346 111.29 28.3216 112.365 26.918C113.441 25.4961 114.899 24.3841 116.74 23.582C118.6 22.7799 120.669 22.3789 122.947 22.3789C126.411 22.3789 129.173 23.2539 131.232 25.0039C133.292 26.7357 134.35 29.1784 134.404 32.332V45.6758C134.404 48.3372 134.778 50.4609 135.525 52.0469V52.5117H128.744ZM121.443 47.7266C122.756 47.7266 123.986 47.4076 125.135 46.7695C126.301 46.1315 127.176 45.2747 127.76 44.1992V38.6211H124.178C121.717 38.6211 119.867 39.0495 118.627 39.9062C117.387 40.763 116.768 41.9753 116.768 43.543C116.768 44.819 117.187 45.8398 118.025 46.6055C118.882 47.3529 120.021 47.7266 121.443 47.7266ZM148.432 52.5117H141.787V10.5117H148.432V52.5117Z" fill="white"/>
<path d="M25.3428 114.573V141.589H6.14746V61.9639H37.9209C44.0094 61.9639 49.387 63.0941 54.0537 65.3545C58.7568 67.5785 62.3844 70.7686 64.9365 74.9248C67.5251 79.0446 68.8193 83.7295 68.8193 88.9795C68.8193 96.7451 66.0303 102.961 60.4521 107.628C54.9105 112.258 47.2907 114.573 37.5928 114.573H25.3428ZM25.3428 99.7529H37.9209C41.6396 99.7529 44.4652 98.8232 46.3975 96.9639C48.3662 95.1045 49.3506 92.4795 49.3506 89.0889C49.3506 85.3701 48.348 82.3988 46.3428 80.1748C44.3376 77.9508 41.6032 76.8206 38.1396 76.7842H25.3428V99.7529ZM108.687 113.479H98.2959V141.589H79.1006V61.9639H110.437C119.879 61.9639 127.262 64.0602 132.585 68.2529C137.908 72.4456 140.569 78.3701 140.569 86.0264C140.569 91.568 139.439 96.1618 137.179 99.8076C134.955 103.453 131.455 106.407 126.679 108.667L143.304 140.769V141.589H122.741L108.687 113.479ZM98.2959 98.6592H110.437C114.082 98.6592 116.817 97.7113 118.64 95.8154C120.499 93.8831 121.429 91.2035 121.429 87.7764C121.429 84.3493 120.499 81.6696 118.64 79.7373C116.78 77.7686 114.046 76.7842 110.437 76.7842H98.2959V98.6592ZM219.593 103.417C219.593 111.183 218.153 118.055 215.272 124.034C212.392 130.013 208.291 134.625 202.968 137.87C197.681 141.078 191.647 142.683 184.866 142.683C178.085 142.683 172.069 141.133 166.819 138.034C161.569 134.899 157.468 130.433 154.515 124.636C151.598 118.839 150.067 112.185 149.921 104.675V100.19C149.921 92.3883 151.343 85.516 154.187 79.5732C157.067 73.5941 161.168 68.9821 166.491 65.7373C171.851 62.4925 177.939 60.8701 184.757 60.8701C191.502 60.8701 197.517 62.4743 202.804 65.6826C208.09 68.891 212.192 73.4665 215.108 79.4092C218.062 85.3154 219.556 92.0967 219.593 99.7529V103.417ZM200.069 100.081C200.069 92.1696 198.739 86.1722 196.077 82.0889C193.452 77.9691 189.679 75.9092 184.757 75.9092C175.132 75.9092 170.046 83.1279 169.499 97.5654L169.444 103.417C169.444 111.219 170.739 117.216 173.327 121.409C175.916 125.602 179.762 127.698 184.866 127.698C189.715 127.698 193.452 125.638 196.077 121.519C198.702 117.399 200.033 111.474 200.069 103.745V100.081ZM279.64 109.87H248.687V141.589H229.491V61.9639H282.757V76.7842H248.687V95.1045H279.64V109.87ZM340.124 107.847H309.937V126.823H345.593V141.589H290.741V61.9639H345.702V76.7842H309.937V93.5732H340.124V107.847ZM394.483 120.425C394.483 117.618 393.481 115.43 391.476 113.862C389.507 112.295 386.025 110.672 381.03 108.995C376.035 107.318 371.952 105.696 368.78 104.128C358.463 99.0602 353.304 92.0967 353.304 83.2373C353.304 78.8258 354.58 74.943 357.132 71.5889C359.72 68.1982 363.366 65.5732 368.069 63.7139C372.772 61.818 378.059 60.8701 383.929 60.8701C389.653 60.8701 394.775 61.891 399.296 63.9326C403.853 65.9743 407.39 68.891 409.905 72.6826C412.421 76.4378 413.679 80.7399 413.679 85.5889H394.538C394.538 82.3441 393.535 79.8285 391.53 78.042C389.562 76.2555 386.882 75.3623 383.491 75.3623C380.064 75.3623 377.348 76.1279 375.343 77.6592C373.374 79.154 372.39 81.068 372.39 83.4014C372.39 85.443 373.483 87.3024 375.671 88.9795C377.858 90.6201 381.705 92.3337 387.21 94.1201C392.715 95.8701 397.236 97.766 400.772 99.8076C409.377 104.766 413.679 111.602 413.679 120.315C413.679 127.279 411.054 132.748 405.804 136.722C400.554 140.696 393.353 142.683 384.202 142.683C377.749 142.683 371.897 141.534 366.647 139.237C361.434 136.904 357.496 133.732 354.835 129.722C352.21 125.675 350.897 121.026 350.897 115.776H370.147C370.147 120.042 371.241 123.196 373.429 125.237C375.653 127.243 379.244 128.245 384.202 128.245C387.374 128.245 389.871 127.571 391.694 126.222C393.554 124.836 394.483 122.904 394.483 120.425ZM464.593 120.425C464.593 117.618 463.59 115.43 461.585 113.862C459.616 112.295 456.134 110.672 451.14 108.995C446.145 107.318 442.062 105.696 438.89 104.128C428.572 99.0602 423.413 92.0967 423.413 83.2373C423.413 78.8258 424.689 74.943 427.241 71.5889C429.83 68.1982 433.476 65.5732 438.179 63.7139C442.882 61.818 448.168 60.8701 454.038 60.8701C459.762 60.8701 464.884 61.891 469.405 63.9326C473.963 65.9743 477.499 68.891 480.015 72.6826C482.53 76.4378 483.788 80.7399 483.788 85.5889H464.647C464.647 82.3441 463.645 79.8285 461.64 78.042C459.671 76.2555 456.991 75.3623 453.601 75.3623C450.174 75.3623 447.457 76.1279 445.452 77.6592C443.483 79.154 442.499 81.068 442.499 83.4014C442.499 85.443 443.593 87.3024 445.78 88.9795C447.968 90.6201 451.814 92.3337 457.319 94.1201C462.825 95.8701 467.345 97.766 470.882 99.8076C479.486 104.766 483.788 111.602 483.788 120.315C483.788 127.279 481.163 132.748 475.913 136.722C470.663 140.696 463.463 142.683 454.312 142.683C447.858 142.683 442.007 141.534 436.757 139.237C431.543 136.904 427.606 133.732 424.944 129.722C422.319 125.675 421.007 121.026 421.007 115.776H440.257C440.257 120.042 441.351 123.196 443.538 125.237C445.762 127.243 449.353 128.245 454.312 128.245C457.483 128.245 459.981 127.571 461.804 126.222C463.663 124.836 464.593 122.904 464.593 120.425ZM561.062 103.417C561.062 111.183 559.621 118.055 556.741 124.034C553.861 130.013 549.759 134.625 544.437 137.87C539.15 141.078 533.116 142.683 526.335 142.683C519.554 142.683 513.538 141.133 508.288 138.034C503.038 134.899 498.937 130.433 495.983 124.636C493.067 118.839 491.535 112.185 491.39 104.675V100.19C491.39 92.3883 492.812 85.516 495.655 79.5732C498.535 73.5941 502.637 68.9821 507.96 65.7373C513.319 62.4925 519.408 60.8701 526.226 60.8701C532.97 60.8701 538.986 62.4743 544.272 65.6826C549.559 68.891 553.66 73.4665 556.577 79.4092C559.53 85.3154 561.025 92.0967 561.062 99.7529V103.417ZM541.538 100.081C541.538 92.1696 540.207 86.1722 537.546 82.0889C534.921 77.9691 531.147 75.9092 526.226 75.9092C516.601 75.9092 511.515 83.1279 510.968 97.5654L510.913 103.417C510.913 111.219 512.207 117.216 514.796 121.409C517.384 125.602 521.231 127.698 526.335 127.698C531.184 127.698 534.921 125.638 537.546 121.519C540.171 117.399 541.502 111.474 541.538 103.745V100.081ZM600.546 113.479H590.155V141.589H570.96V61.9639H602.296C611.739 61.9639 619.121 64.0602 624.444 68.2529C629.767 72.4456 632.429 78.3701 632.429 86.0264C632.429 91.568 631.299 96.1618 629.038 99.8076C626.814 103.453 623.314 106.407 618.538 108.667L635.163 140.769V141.589H614.601L600.546 113.479ZM590.155 98.6592H602.296C605.942 98.6592 608.676 97.7113 610.499 95.8154C612.358 93.8831 613.288 91.2035 613.288 87.7764C613.288 84.3493 612.358 81.6696 610.499 79.7373C608.64 77.7686 605.905 76.7842 602.296 76.7842H590.155V98.6592Z" fill="white"/>
</svg>
